<svg xmlns="http://www.w3.org/2000/svg" width="1200" height="800" viewBox="0 0 1200 800" role="img" aria-labelledby="title desc">
  <title id="title">Campus Creatives placeholder</title>
  <desc id="desc">A maroon and gold local placeholder for missing Campus Creatives prototype assets.</desc>
  <rect width="1200" height="800" fill="#4b0f1e"/>
  <rect x="72" y="72" width="1056" height="656" rx="28" fill="#fff8e1" opacity=".92"/>
  <circle cx="214" cy="196" r="68" fill="#f3c64f"/>
  <path d="M120 608c116-152 202-226 258-222 53 4 79 80 136 78 67-2 116-112 188-114 71-2 122 101 188 104 54 2 96-62 190-150v304H120Z" fill="#7a1f32" opacity=".95"/>
  <path d="M120 650c104-106 190-154 258-144 74 11 100 88 176 86 84-3 135-100 214-92 75 8 112 102 188 98 55-3 98-57 124-92v144H120Z" fill="#f3c64f" opacity=".92"/>
  <text x="120" y="168" font-family="Inter, Arial, sans-serif" font-size="42" font-weight="800" fill="#4b0f1e">PUP: Campus Creatives</text>
  <text x="120" y="224" font-family="Inter, Arial, sans-serif" font-size="24" font-weight="600" fill="#7a1f32">Local prototype asset placeholder</text>
</svg>
